<svg width="13" height="13" viewBox="0 0 13 13" fill="none" xmlns="http://www.w3.org/2000/svg">
<path d="M4.65503 3.71054H5.68947V6.29665H8.27558V7.33109H4.65503V3.71054Z" fill="white"/>
<path fill-rule="evenodd" clip-rule="evenodd" d="M11.3789 6.29667C11.3789 9.15329 9.06332 11.4689 6.20671 11.4689C3.35009 11.4689 1.03448 9.15329 1.03448 6.29667C1.03448 3.44005 3.35009 1.12445 6.20671 1.12445C9.06332 1.12445 11.3789 3.44005 11.3789 6.29667ZM10.3445 6.29667C10.3445 7.39408 9.90854 8.44654 9.13256 9.22252C8.35657 9.9985 7.30411 10.4344 6.20671 10.4344C5.1093 10.4344 4.05684 9.9985 3.28086 9.22252C2.50487 8.44654 2.06893 7.39408 2.06893 6.29667C2.06893 5.19926 2.50487 4.14681 3.28086 3.37082C4.05684 2.59484 5.1093 2.15889 6.20671 2.15889C7.30411 2.15889 8.35657 2.59484 9.13256 3.37082C9.90854 4.14681 10.3445 5.19926 10.3445 6.29667V6.29667Z" fill="white"/>
</svg>
